<?xml version="1.0" encoding="UTF-8" standalone="no"?>
<!-- Created with Inkscape (http://www.inkscape.org/) -->

<svg
   width="180"
   height="180"
   viewBox="0 0 180 180"
   version="1.1"
   id="svg1"
   xml:space="preserve"
   inkscape:version="1.3.2 (091e20ef0f, 2023-11-25)"
   sodipodi:docname="star-pattern.svg"
   xmlns:inkscape="http://www.inkscape.org/namespaces/inkscape"
   xmlns:sodipodi="http://sodipodi.sourceforge.net/DTD/sodipodi-0.dtd"
   xmlns="http://www.w3.org/2000/svg"
   xmlns:svg="http://www.w3.org/2000/svg"><sodipodi:namedview
     id="namedview1"
     pagecolor="#505050"
     bordercolor="#eeeeee"
     borderopacity="1"
     inkscape:showpageshadow="0"
     inkscape:pageopacity="0"
     inkscape:pagecheckerboard="0"
     inkscape:deskcolor="#505050"
     inkscape:document-units="px"
     inkscape:zoom="1.5929544"
     inkscape:cx="84.120424"
     inkscape:cy="102.63947"
     inkscape:window-width="1920"
     inkscape:window-height="1008"
     inkscape:window-x="0"
     inkscape:window-y="0"
     inkscape:window-maximized="1"
     inkscape:current-layer="layer1" /><defs
     id="defs1" /><g
     inkscape:label="Layer 1"
     inkscape:groupmode="layer"
     id="layer1"><path
       d="m -2.6433121,56.446455 c -1.04458,-1.21334 -2.70068,-1.71983 -4.25853,-1.3024 -1.55786,0.41742 -2.72618,1.68071 -3.0368,3.25718 l -3.6540499,18.93863 -17.46821,7.558464 c -1.45877,0.635224 -2.44025,2.038499 -2.5186,3.620601 -0.0784,1.582102 0.73262,3.088811 2.11032,3.873519 l 16.69639,9.521891 1.82892,19.28851 c 0.15394,1.58774 1.20125,2.96324 2.69609,3.52652 1.4948399,0.56327 3.1845599,0.23269 4.3589999,-0.85577 l 13.92516,-13.03001 18.5745421,4.32174 c 1.56132,0.35541 3.19335,-0.19049 4.20289,-1.43838 1.00954,-1.2479 1.23218,-2.95011 0.57162,-4.4021 L 23.31241,91.709446 33.01095,75.115055 c 0.80077,-1.36843 0.7624,-3.08216 -0.10917,-4.40973 -0.87156,-1.32757 -2.41052,-2.0555 -3.99147,-1.87623 l -18.9198121,2.19168 z"
       id="path1-5"
       style="stroke-width:0.131123;fill:#ffffff;fill-opacity:0.2"
       inkscape:label="Left" /><path
       d="m 87.356687,146.44645 c -1.04458,-1.21334 -2.70068,-1.71983 -4.25853,-1.3024 -1.55786,0.41742 -2.72618,1.68071 -3.0368,3.25718 l -3.65405,18.93863 -17.46821,7.55847 c -1.45877,0.63522 -2.44025,2.0385 -2.5186,3.6206 -0.0784,1.5821 0.73262,3.08881 2.11032,3.87352 l 16.69639,9.52189 1.82892,19.28851 c 0.15394,1.58774 1.20125,2.96324 2.69609,3.52652 1.49484,0.56327 3.18456,0.23269 4.359,-0.85577 l 13.92516,-13.03001 18.574543,4.32174 c 1.56132,0.35541 3.19335,-0.19049 4.20289,-1.43838 1.00954,-1.2479 1.23218,-2.95011 0.57162,-4.4021 l -8.07302,-17.61541 9.69854,-16.59439 c 0.80077,-1.36843 0.7624,-3.08216 -0.10917,-4.40973 -0.87156,-1.32757 -2.41052,-2.0555 -3.99147,-1.87623 l -18.919813,2.19168 z"
       id="path5"
       style="stroke-width:0.131123;fill:#ffffff;fill-opacity:0.2"
       inkscape:label="Bottom" /><path
       d="m 177.35669,56.446455 c -1.04458,-1.21334 -2.70068,-1.71983 -4.25853,-1.3024 -1.55786,0.41742 -2.72618,1.68071 -3.0368,3.25718 l -3.65405,18.93863 -17.46821,7.558465 c -1.45877,0.635224 -2.44025,2.038499 -2.5186,3.620601 -0.0784,1.582102 0.73262,3.088811 2.11032,3.873519 l 16.69639,9.52189 1.82892,19.28851 c 0.15394,1.58774 1.20125,2.96325 2.69609,3.52652 1.49484,0.56327 3.18456,0.23269 4.359,-0.85577 l 13.92516,-13.03001 18.57454,4.32174 c 1.56132,0.35541 3.19335,-0.19049 4.20289,-1.43838 1.00954,-1.2479 1.23218,-2.95011 0.57162,-4.4021 l -8.07302,-17.615403 9.69854,-16.594392 c 0.80077,-1.36843 0.7624,-3.08216 -0.10917,-4.40973 -0.87156,-1.32757 -2.41052,-2.0555 -3.99147,-1.87623 l -18.91981,2.19168 z"
       id="path6"
       style="stroke-width:0.131123;fill:#ffffff;fill-opacity:0.2"
       inkscape:label="Right" /><path
       d="m 87.356518,-33.553544 c -1.04458,-1.21334 -2.70068,-1.71983 -4.25853,-1.3024 -1.55786,0.41742 -2.72618,1.68071 -3.0368,3.25718 l -3.65405,18.93863 -17.46821,7.5584641 c -1.45877,0.635224 -2.44025,2.038499 -2.5186,3.620601 -0.0784,1.58210202 0.73262,3.088811 2.11032,3.873519 l 16.69639,9.5218949 1.82892,19.288509 c 0.15394,1.587735 1.20125,2.963242 2.69609,3.526517 1.49484,0.563273 3.18456,0.232687 4.359,-0.85577 l 13.92516,-13.030012 18.574542,4.321742 c 1.56132,0.355413 3.19335,-0.190487 4.20289,-1.438383 1.00954,-1.247894 1.23218,-2.950107 0.57162,-4.402094 l -8.07302,-17.6154069 9.69854,-16.5943911 c 0.80077,-1.36843 0.7624,-3.08216 -0.10917,-4.40973 -0.87156,-1.32757 -2.41052,-2.0555 -3.99147,-1.87623 l -18.919812,2.19168 z"
       id="path7"
       style="stroke-width:0.131123;fill:#ffffff;fill-opacity:0.2"
       inkscape:label="Top" /></g></svg>
